#!OML:ASF E:\emotionWalksFemale\Project 1\Capture day 1\Session 1\Female1.ASF
:FULLY-SPECIFIED
:DEGREES
393
root 9.1009 14.9726 39.2592 184.912 9.31463 -175.305
lowerback 7.77937 0.535079 6.53103
upperback -2.59359 1.73846 2.60618
thorax -7.01622 0.693073 -1.16775
lowerneck -4.00264 1.31623 -2.39542
upperneck 2.7634 1.85568 0.931462
head 1.50097 0.919705 0.739566
rclavicle -5.46658e-015 2.46493e-014
rhumerus -44.173 15.0046 -93.5031
rradius 35.6361
rwrist 11.0762
rhand 0.842943 -55.3369
rfingers 7.12502
rthumb 26.3975 -83.5191
lclavicle -5.46658e-015 2.46493e-014
lhumerus -50.415 16.3441 69.7352
lradius 35.5716
lwrist -15.8345
lhand -5.31396 -33.0825
lfingers 7.12502
lthumb 20.4917 -4.14386
rfemur 14.4838 18.7729 33.348
rtibia -3.49861e-014
rfoot -16.9931 -25.9953
rtoes 0.122545
lfemur -36.3027 -18.8951 -1.26721
ltibia 29.0251
lfoot -27.5783 25.044
ltoes -0.871591
394
root 9.0696 14.9652 39.1854 185.032 9.70761 -175.339
lowerback 7.91436 0.626183 6.48981
upperback -2.67402 1.86184 2.52418
thorax -7.16986 0.74498 -1.2502
lowerneck -3.69858 1.37615 -2.16035
upperneck 2.39676 1.91362 0.981442
head 1.3309 0.953176 0.709232
rclavicle 4.42544e-014 3.65764e-014
rhumerus -44.1601 14.5881 -93.3565
rradius 35.5012
rwrist 11.0818
rhand 1.20813 -55.6111
rfingers 7.12502
rthumb 26.747 -83.7404
lclavicle 4.42544e-014 3.65764e-014
lhumerus -50.401 15.8301 69.8342
lradius 35.7609
lwrist -15.5443
lhand -7.46541 -33.9822
lfingers 7.12502
lthumb 18.4232 -4.83464
rfemur 14.6737 18.8241 33.0979
rtibia 1.90833e-014
rfoot -17.0924 -25.7924
rtoes -0.196081
lfemur -36.1929 -18.0234 -1.74743
ltibia 29.1756
lfoot -26.9175 24.3928
ltoes -3.65493
395
root 9.03521 14.952 39.1064 185.082 10.0945 -175.287
lowerback 8.02564 0.625865 6.4645
upperback -2.6685 1.87534 2.58341
thorax -7.23023 0.753662 -1.17784
lowerneck -3.52126 1.49406 -2.18324
upperneck 2.0968 2.06701 1.02902
head 1.20189 1.03159 0.725756
rclavicle -8.94531e-016 -2.06736e-014
rhumerus -44.3003 14.62 -93.184
rradius 35.5315
rwrist 11.0836
rhand 2.08571 -56.2603
rfingers 7.12502
rthumb 27.5866 -84.2584
lclavicle -8.94531e-016 -2.06736e-014
lhumerus -50.4809 15.705 69.9495
lradius 36.008
lwrist -15.3198
lhand -4.54098 -33.461
lfingers 7.12502
lthumb 21.2344 -4.60408
rfemur 14.9347 18.8612 32.9422
rtibia 4.45278e-014
rfoot -17.2269 -25.5969
rtoes -0.664386
lfemur -36.0147 -17.5978 -2.02177
ltibia 29.3797
lfoot -25.8245 24.1276
ltoes -6.94203
396
root 9.00186 14.9354 39.0285 185.158 10.4404 -175.094
lowerback 8.13458 0.584255 6.52883
upperback -2.60552 1.84733 2.69406
thorax -7.23037 0.743689 -1.09541
lowerneck -3.65985 1.59943 -2.02159
upperneck 2.05057 2.20776 0.870482
head 1.2115 1.10118 0.653282
rclavicle -5.29264e-015 1.03368e-014
rhumerus -44.2335 14.7101 -92.9947
rradius 35.4155
rwrist 11.3902
rhand 2.05843 -55.9511
rfingers 7.12502
rthumb 27.5605 -83.9534
lclavicle -5.29264e-015 1.03368e-014
lhumerus -50.523 15.9002 69.9511
lradius 36.3528
lwrist -15.1269
lhand -3.60166 -33.0595
lfingers 7.12502
lthumb 22.1364 -4.30683
rfemur 15.1776 18.8702 32.9296
rtibia 2.22639e-014
rfoot -17.439 -25.3716
rtoes -1.15516
lfemur -35.8554 -16.6446 -2.33742
ltibia 29.6594
lfoot -24.3969 23.2156
ltoes -10.6499
397
root 8.96897 14.9218 38.955 185.307 10.775 -174.94
lowerback 8.26474 0.560574 6.5457
upperback -2.55288 1.83656 2.77687
thorax -7.25261 0.741804 -1.01851
lowerneck -3.9207 1.71906 -1.68159
upperneck 2.0928 2.36379 0.596125
head 1.27359 1.17745 0.518171
rclavicle 3.97569e-015 2.54444e-014
rhumerus -43.9093 14.6739 -92.7627
rradius 35.1118
rwrist 11.6407
rhand 1.36694 -54.9109
rfingers 7.12502
rthumb 26.899 -83.0169
lclavicle 3.97569e-015 2.54444e-014
lhumerus -50.375 15.9094 70.1157
lradius 36.5674
lwrist -15.078
lhand -5.02427 -33.1826
lfingers 7.12502
lthumb 20.7701 -4.27422
rfemur 15.3366 18.8828 32.8564
rtibia -7.31528e-014
rfoot -17.7011 -25.1141
rtoes -1.5081
lfemur -35.8114 -15.349 -2.79578
ltibia 30.0486
lfoot -23.3188 21.7814
ltoes -11.8058
398
root 8.93111 14.9125 38.8785 185.472 11.0507 -174.876
lowerback 8.37261 0.496153 6.6297
upperback -2.56239 1.77289 2.78897
thorax -7.32814 0.705362 -1.04544
lowerneck -3.91265 1.87935 -1.56426
upperneck 1.92429 2.57405 0.519589
head 1.21835 1.28313 0.477468
rclavicle -7.57867e-015 -4.85035e-014
rhumerus -43.8364 14.8015 -92.7207
rradius 34.9843
rwrist 11.4846
rhand 1.25673 -54.8471
rfingers 7.12502
rthumb 26.7935 -82.9693
lclavicle -7.57867e-015 -4.85035e-014
lhumerus -50.246 15.8603 70.189
lradius 36.765
lwrist -14.6771
lhand -5.35932 -33.1998
lfingers 7.12502
lthumb 20.4481 -4.25655
rfemur 15.474 18.841 32.6669
rtibia 1.59028e-014
rfoot -18.1023 -24.9048
rtoes -1.76376
lfemur -35.8012 -14.1972 -3.32636
ltibia 30.4665
lfoot -22.1699 20.1052
ltoes -10.0591
399
root 8.89244 14.9063 38.7975 185.706 11.3445 -174.879
lowerback 8.44611 0.474733 6.64474
upperback -2.67158 1.75611 2.75283
thorax -7.48784 0.688438 -1.09076
lowerneck -3.59317 1.97818 -1.53782
upperneck 1.51003 2.6988 0.562918
head 1.03104 1.34837 0.47999
rclavicle -7.05686e-015 5.96354e-014
rhumerus -44.086 14.9787 -92.8384
rradius 35.1415
rwrist 11.2989
rhand 0.981384 -55.202
rfingers 7.12502
rthumb 26.53 -83.3643
lclavicle -7.05686e-015 5.96354e-014
lhumerus -50.3034 15.9023 70.0306
lradius 37.0602
lwrist -14.279
lhand -3.83712 -33.3317
lfingers 7.12502
lthumb 21.9104 -4.55236
rfemur 15.5309 18.8291 32.3804
rtibia -9.22361e-014
rfoot -18.4306 -24.8209
rtoes -2.69952
lfemur -35.8643 -12.619 -4.05974
ltibia 30.892
lfoot -20.4382 18.4023
ltoes -12.3475
400
root 8.85464 14.9019 38.7174 185.928 11.7133 -174.93
lowerback 8.47042 0.525487 6.53508
upperback -2.69459 1.80822 2.71777
thorax -7.52401 0.714826 -1.07451
lowerneck -3.53146 2.00672 -1.47697
upperneck 1.19924 2.73513 0.550366
head 0.923565 1.36872 0.462491
rclavicle 2.36305e-014 1.43125e-014
rhumerus -44.0487 14.9327 -92.7975
rradius 35.2119
rwrist 11.5154
rhand 0.630924 -55.1762
rfingers 7.12502
rthumb 26.1945 -83.3887
lclavicle 2.36305e-014 1.43125e-014
lhumerus -50.164 15.8181 70.0846
lradius 37.3384
lwrist -13.869
lhand -2.68822 -33.3498
lfingers 7.12502
lthumb 23.0132 -4.70372
rfemur 15.6022 18.8843 32.0427
rtibia 7.31528e-014
rfoot -18.6217 -24.8105
rtoes -3.48054
lfemur -36.026 -12.1557 -4.39272
ltibia 31.3795
lfoot -19.4648 17.5062
ltoes -12.0131
401
root 8.81603 14.8974 38.6374 186.036 12.1218 -175.084
lowerback 8.65797 0.569774 6.32485
upperback -2.69204 1.84895 2.67114
thorax -7.62963 0.737102 -1.01565
lowerneck -3.58307 2.06212 -1.54232
upperneck 0.978086 2.81338 0.627736
head 0.860672 1.41041 0.496802
rclavicle -5.69021e-015 -7.15625e-015
rhumerus -43.8694 14.8003 -92.5971
rradius 35.032
rwrist 11.9743
rhand 0.594768 -55.6083
rfingers 7.12502
rthumb 26.1599 -83.826
lclavicle -5.69021e-015 -7.15625e-015
lhumerus -49.9886 15.6596 70.3331
lradius 37.5592
lwrist -13.5975
lhand -3.29701 -33.1423
lfingers 7.12502
lthumb 22.4289 -4.42453
rfemur 15.7671 18.9517 31.6123
rtibia 9.22361e-014
rfoot -18.717 -24.7386
rtoes -3.74435
lfemur -36.1851 -11.2487 -5.00725
ltibia 31.9697
lfoot -18.415 16.5234
ltoes -11.2188
402
root 8.77708 14.895 38.5585 186.191 12.4785 -175.187
lowerback 8.88161 0.572029 6.13804
upperback -2.70062 1.84372 2.65199
thorax -7.77197 0.736615 -0.934817
lowerneck -3.66339 2.15226 -1.54756
upperneck 0.734262 2.93848 0.624895
head 0.796828 1.47531 0.497384
rclavicle -1.10077e-014 4.85035e-014
rhumerus -43.7663 14.8423 -92.437
rradius 34.9319
rwrist 12.1735
rhand -0.305346 -55.5037
rfingers 7.12502
rthumb 25.2979 -83.8462
lclavicle -1.10077e-014 4.85035e-014
lhumerus -49.8055 15.4924 70.6236
lradius 37.7542
lwrist -13.4038
lhand -5.23636 -33.2806
lfingers 7.12502
lthumb 20.5663 -4.35008
rfemur 15.8531 18.9789 31.2244
rtibia 3.81667e-014
rfoot -18.7154 -24.5228
rtoes -4.78907
lfemur -36.4218 -10.0265 -5.68202
ltibia 32.6457
lfoot -17.2215 15.6649
ltoes -12.0303
403
root 8.73648 14.8914 38.4804 186.388 12.7132 -175.199
lowerback 9.08186 0.533469 6.14305
upperback -2.68701 1.80087 2.60073
thorax -7.8738 0.709387 -0.988576
lowerneck -3.89992 2.21481 -1.38253
upperneck 0.576655 3.02449 0.477788
head 0.790983 1.51958 0.428346
rclavicle -2.21148e-014 -5.64548e-014
rhumerus -43.5549 14.6972 -92.3119
rradius 34.7663
rwrist 12.4365
rhand -0.896339 -53.9534
rfingers 7.12502
rthumb 24.7316 -82.3747
lclavicle -2.21148e-014 -5.64548e-014
lhumerus -49.5474 15.2722 70.7707
lradius 38.0309
lwrist -12.9715
lhand -6.31548 -33.4306
lfingers 7.12502
lthumb 19.5291 -4.39138
rfemur 15.8803 18.8993 30.9272
rtibia -4.13472e-014
rfoot -18.7843 -24.4015
rtoes -6.38276
lfemur -36.7365 -8.62284 -6.37653
ltibia 33.4295
lfoot -16.0668 14.7816
ltoes -15.712
404
root 8.69695 14.8824 38.4038 186.539 12.8718 -175.305
lowerback 9.2333 0.520875 6.04281
upperback -2.6013 1.76403 2.51552
thorax -7.86975 0.691453 -1.01927
lowerneck -4.21006 2.25966 -1.47284
upperneck 0.3243 3.09726 0.667707
head 0.760288 1.56222 0.504792
rclavicle -5.55603e-014 3.97569e-015
rhumerus -43.2696 14.4334 -92.1551
rradius 34.6699
rwrist 12.7375
rhand -0.894165 -53.3408
rfingers 7.12502
rthumb 24.7336 -81.7618
lclavicle -5.55603e-014 3.97569e-015
lhumerus -49.2097 15.2088 70.8521
lradius 38.3763
lwrist -12.895
lhand -6.06547 -33.34
lfingers 7.12502
lthumb 19.7694 -4.32534
rfemur 15.9315 18.7313 30.5432
rtibia -6.36111e-015
rfoot -18.9694 -24.3459
rtoes -7.1609
lfemur -37.0951 -7.01659 -7.26898
ltibia 34.2466
lfoot -15.2491 13.5597
ltoes -18.9729
405
root 8.65927 14.8674 38.3301 186.533 12.9707 -175.471
lowerback 9.55746 0.504619 5.81674
upperback -2.50729 1.71948 2.43637
thorax -7.96001 0.673027 -0.974783
lowerneck -4.51624 2.31847 -1.8447
upperneck 0.173927 3.19936 1.16467
head 0.752132 1.62248 0.724778
rclavicle 9.98893e-015 -1.90833e-014
rhumerus -43.1758 14.302 -92.0762
rradius 34.7923
rwrist 12.8804
rhand -1.52625 -53.786
rfingers 7.12502
rthumb 24.1277 -82.2888
lclavicle 9.98893e-015 -1.90833e-014
lhumerus -48.8667 15.1407 70.9985
lradius 38.6534
lwrist -12.9171
lhand -6.04882 -33.2451
lfingers 7.12502
lthumb 19.7854 -4.23209
rfemur 16.1724 18.4728 30.1568
rtibia 3.81667e-014
rfoot -19.2185 -24.0996
rtoes -6.1822
lfemur -37.374 -5.7952 -8.08591
ltibia 35.0965
lfoot -15.05 12.5683
ltoes -18.9182
406
root 8.62616 14.8769 38.2666 187.586 14.6589 -175.478
lowerback 9.25415 1.09357 5.23973
upperback -2.77019 2.41204 2.36311
thorax -8.04302 1.02803 -0.833683
lowerneck -5.02509 2.39012 -2.24528
upperneck 0.416251 3.31944 1.68356
head 0.899997 1.69023 0.968299
rclavicle 3.73218e-014 7.59357e-014
rhumerus -43.2351 14.0235 -91.9804
rradius 34.8569
rwrist 13.1512
rhand -1.66537 -53.361
rfingers 7.12502
rthumb 23.9943 -81.8814
lclavicle 3.73218e-014 7.59357e-014
lhumerus -48.6254 14.8657 71.0829
lradius 38.9541
lwrist -12.3989
lhand -5.86428 -33.0133
lfingers 7.12502
lthumb 19.9628 -4.01869
rfemur 15.0796 19.9675 29.3246
rtibia 4.77083e-014
rfoot -18.5766 -24.015
rtoes -6.84086
lfemur -38.2306 -3.75727 -8.52896
ltibia 35.8864
lfoot -15.0057 12.211
ltoes -15.6133
